{"accessors":[{"bufferView":0,"byteOffset":0,"componentType":5126,"count":1308,"max":[25.0,7.0,25.0],"min":[-25.0,-6.0,-25.0],"type":"VEC3"},{"bufferView":1,"byteOffset":0,"componentType":5126,"count":1308,"max":[1.0,1.0,0.9995257258415222],"min":[-1.0,-1.0,-0.9995257258415222],"type":"VEC3"},{"bufferView":2,"byteOffset":0,"componentType":5126,"count":1308,"max":[1.0,1.0],"min":[0.0,0.0],"type":"VEC2"},{"bufferView":3,"byteOffset":0,"componentType":5125,"count":3552,"type":"SCALAR"}],"asset":{"copyright":"KiM GmbH","extra":{"CADClick_SWAP_AXIS":false},"generator":"CADClick glTF Export 1.7.1.1","version":"2.0"},"bufferViews":[{"buffer":0,"byteLength":15696,"byteOffset":0},{"buffer":0,"byteLength":15696,"byteOffset":15696},{"buffer":0,"byteLength":10464,"byteOffset":31392},{"buffer":0,"byteLength":14208,"byteOffset":41856}],"buffers":[{"byteLength":56064,"uri":"data:application/octet-stream;base64,"}],"materials":[{"alphaMode":"OPAQUE","doubleSided":true,"name":"M_d9EA3B0_0_0","pbrMetallicRoughness":{"baseColorFactor":[0.34191444516181946,0.36625269055366516,0.4341537058353424,1.0],"metallicFactor":1.0,"roughnessFactor":0.0}}],"meshes":[{"primitives":[{"attributes":{"NORMAL":1,"POSITION":0,"TEXCOORD_0":2},"indices":3,"material":0,"mode":4}]}],"nodes":[{"children":[1]},{"mesh":0,"name":"00078100_202408311907250023_0001"}],"scene":0,"scenes":[{"name":"Wuerth_WIS_045102150_Wood_connector_press-in_anchor_type_C1_LOD_High_2","nodes":[0]}]}